<svg width="17" height="15" viewBox="0 0 17 15" fill="none" xmlns="http://www.w3.org/2000/svg">
<path d="M15.3588 1.57346C14.5023 0.644462 13.327 0.132812 12.0492 0.132812C11.0941 0.132812 10.2194 0.434778 9.44932 1.03025C9.06075 1.33083 8.70867 1.69856 8.39824 2.12778C8.08795 1.69869 7.73574 1.33083 7.34705 1.03025C6.57711 0.434778 5.7024 0.132812 4.74727 0.132812C3.46947 0.132812 2.29405 0.644462 1.43751 1.57346C0.591203 2.4916 0.125 3.74592 0.125 5.10552C0.125 6.50489 0.646496 7.78584 1.76612 9.13686C2.7677 10.3454 4.20721 11.5721 5.87421 12.9927C6.44342 13.4779 7.08863 14.0278 7.75859 14.6135C7.93558 14.7685 8.16268 14.8539 8.39824 14.8539C8.63368 14.8539 8.86091 14.7685 9.03765 14.6138C9.7076 14.0279 10.3532 13.4777 10.9227 12.9923C12.5894 11.572 14.0289 10.3454 15.0305 9.13673C16.1501 7.78584 16.6715 6.50489 16.6715 5.10539C16.6715 3.74592 16.2053 2.4916 15.3588 1.57346Z" fill="#DFD8D8"/>
</svg>
