<svg width="18" height="15" viewBox="0 0 18 15" fill="none" xmlns="http://www.w3.org/2000/svg">
<path d="M15.7807 1.57346C14.9242 0.644462 13.7489 0.132812 12.4711 0.132812C11.516 0.132812 10.6413 0.434778 9.87119 1.03025C9.48263 1.33083 9.13054 1.69856 8.82012 2.12778C8.50982 1.69869 8.15761 1.33083 7.76892 1.03025C6.99899 0.434778 6.12427 0.132812 5.16914 0.132812C3.89134 0.132812 2.71593 0.644462 1.85939 1.57346C1.01308 2.4916 0.546875 3.74592 0.546875 5.10552C0.546875 6.50489 1.06837 7.78584 2.18799 9.13686C3.18958 10.3454 4.62909 11.5721 6.29608 12.9927C6.8653 13.4779 7.51051 14.0278 8.18046 14.6135C8.35745 14.7685 8.58456 14.8539 8.82012 14.8539C9.05556 14.8539 9.28279 14.7685 9.45952 14.6138C10.1295 14.0279 10.7751 13.4777 11.3445 12.9923C13.0113 11.572 14.4508 10.3454 15.4524 9.13673C16.572 7.78584 17.0934 6.50489 17.0934 5.10539C17.0934 3.74592 16.6272 2.4916 15.7807 1.57346Z" fill="#F37373"/>
</svg>
